<?xml version="1.0" standalone="no"?>
<!DOCTYPE svg PUBLIC "-//W3C//DTD SVG 20010904//EN"
 "http://www.w3.org/TR/2001/REC-SVG-20010904/DTD/svg10.dtd">
<svg version="1.0" xmlns="http://www.w3.org/2000/svg"
 width="16.000000pt" height="16.000000pt" viewBox="0 0 16.000000 16.000000"
 preserveAspectRatio="xMidYMid meet">
<metadata>
Created by potrace 1.11, written by Peter Selinger 2001-2013
</metadata>
<g transform="translate(0.000000,16.000000) scale(0.003125,-0.003125)"
fill="#000000" stroke="none">
<path d="M685 4262 c-3 -3 -5 -13 -5 -22 0 -14 13 -18 65 -23 150 -14 209 -91
205 -267 0 -36 -2 -76 -4 -90 -2 -14 -7 -45 -10 -70 -4 -25 -9 -63 -13 -85 -3
-22 -7 -51 -8 -65 -1 -14 -8 -59 -14 -100 -6 -41 -14 -93 -16 -115 -3 -22 -12
-87 -20 -145 -9 -58 -18 -121 -20 -140 -3 -19 -7 -46 -10 -60 -2 -14 -7 -47
-10 -75 -3 -27 -8 -57 -10 -65 -2 -8 -6 -37 -9 -65 -3 -27 -8 -66 -11 -85 -7
-51 -55 -388 -61 -435 -3 -22 -7 -47 -9 -55 -2 -8 -7 -44 -10 -80 -4 -35 -8
-67 -10 -70 -1 -3 -6 -32 -9 -65 -4 -33 -9 -69 -11 -80 -3 -11 -7 -36 -9 -55
-3 -19 -10 -73 -16 -120 -7 -47 -13 -94 -15 -105 -1 -11 -5 -38 -8 -60 -4 -22
-9 -60 -12 -85 -3 -25 -8 -56 -10 -70 -5 -25 -22 -141 -30 -213 -3 -20 -10
-58 -15 -82 -6 -25 -13 -62 -16 -82 -11 -68 -54 -205 -88 -278 -48 -103 -93
-160 -270 -337 -111 -111 -154 -161 -150 -172 8 -21 16 -20 40 2 32 30 136 97
194 125 70 33 197 75 391 127 368 100 495 160 655 313 79 74 157 186 197 282
24 59 63 175 71 219 4 18 14 69 30 152 2 12 7 45 11 74 4 29 8 61 10 70 2 9 6
41 10 71 3 30 11 82 16 117 5 34 12 84 15 110 3 26 7 54 9 62 2 8 7 40 10 70
3 30 15 114 25 185 11 72 22 148 24 170 6 45 75 536 81 575 2 14 9 63 15 110
6 47 13 96 15 110 2 14 9 61 15 105 6 44 12 91 14 105 2 14 7 48 11 75 32 246
73 389 139 488 75 113 156 158 290 158 127 0 212 -52 237 -146 12 -42 14 -144
5 -210 -3 -21 -11 -75 -16 -120 -13 -96 -18 -131 -30 -210 -5 -33 -12 -82 -15
-110 -3 -27 -8 -61 -10 -75 -2 -14 -7 -45 -10 -70 -3 -25 -8 -56 -10 -70 -3
-14 -7 -47 -10 -75 -3 -27 -10 -77 -15 -110 -5 -33 -12 -80 -15 -104 -3 -23
-7 -55 -10 -70 -2 -14 -7 -46 -10 -71 -3 -25 -10 -72 -15 -105 -5 -33 -12 -80
-15 -105 -3 -25 -8 -63 -12 -85 -3 -22 -7 -51 -8 -65 -4 -34 -23 -169 -30
-210 -2 -14 -11 -75 -20 -145 -39 -309 -67 -425 -130 -542 -36 -65 -79 -116
-130 -150 -34 -24 -121 -52 -147 -47 -10 1 -18 -4 -18 -12 0 -8 0 -17 0 -20 0
-3 433 -7 962 -7 846 -1 1089 3 1148 18 8 2 38 6 65 10 86 10 306 67 370 95
327 141 493 307 555 555 72 284 -13 513 -255 693 -116 86 -331 168 -488 188
-23 3 -48 7 -54 9 -7 2 -50 7 -95 11 -119 9 -123 19 -13 29 249 22 452 76 615
162 242 129 369 316 376 558 4 108 -4 150 -43 232 -94 200 -375 354 -728 399
-11 1 -47 6 -80 10 -33 5 -233 7 -445 5 -212 -2 -524 -3 -695 -3 -170 1 -519
1 -775 1 -903 -1 -1456 1 -1542 4 -49 2 -90 2 -93 -1z m3178 -76 c139 -61 215
-236 211 -481 -7 -395 -168 -679 -436 -769 -42 -15 -104 -28 -138 -31 l-61 -5
5 33 c3 17 8 50 11 72 3 22 10 72 15 110 6 39 12 86 15 105 3 19 12 85 20 145
9 61 18 128 21 150 3 22 14 96 24 165 10 69 21 148 25 175 8 69 15 116 20 145
3 14 7 45 10 70 3 25 8 54 10 65 2 11 4 30 4 42 2 45 152 50 244 9z m-268
-1353 c96 -30 171 -90 234 -183 57 -85 81 -149 106 -280 26 -135 4 -457 -35
-531 -6 -10 -9 -19 -6 -19 9 0 -43 -140 -74 -203 -28 -55 -96 -155 -125 -182
-79 -78 -173 -116 -265 -110 -110 8 -162 77 -166 219 -1 45 1 104 6 131 4 28
11 75 15 105 3 30 8 66 10 80 11 72 17 118 21 145 4 37 14 111 20 145 2 14 13
93 24 175 12 83 23 161 25 175 3 14 8 48 11 75 3 28 8 61 10 75 2 14 9 63 15
110 6 47 16 88 23 92 14 10 88 1 151 -19z"/>
</g>
</svg>
